<?xml version="1.0" encoding="UTF-8"?>
<svg id="Layer_2" xmlns="http://www.w3.org/2000/svg" xmlns:xlink="http://www.w3.org/1999/xlink" version="1.1" viewBox="0 0 1440 1440">
  <!-- Generator: Adobe Illustrator 29.6.1, SVG Export Plug-In . SVG Version: 2.1.1 Build 9)  -->
  <defs>
    <style>
      .st0 {
        fill: url(#linear-gradient);
      }

      .st0, .st1, .st2, .st3, .st4, .st5, .st6, .st7 {
        stroke: #000;
        stroke-miterlimit: 10;
        stroke-width: .74px;
      }

      .st1 {
        fill: url(#linear-gradient3);
      }

      .st2 {
        fill: url(#linear-gradient6);
      }

      .st3 {
        fill: url(#linear-gradient5);
      }

      .st4 {
        fill: url(#linear-gradient7);
      }

      .st5 {
        fill: url(#linear-gradient4);
      }

      .st6 {
        fill: url(#linear-gradient2);
      }

      .st7 {
        fill: url(#linear-gradient1);
      }
    </style>
    <linearGradient id="linear-gradient" x1="46.55" y1="359.98" x2="1393.44" y2="359.98" gradientTransform="translate(0 360)" gradientUnits="userSpaceOnUse">
      <stop offset="0" stop-color="#ef1f7e"/>
      <stop offset=".08" stop-color="#f1425f"/>
      <stop offset=".2" stop-color="#f57037"/>
      <stop offset=".22" stop-color="#f67f32"/>
      <stop offset=".32" stop-color="#f9b225"/>
      <stop offset=".37" stop-color="#fbc620"/>
      <stop offset=".38" stop-color="#f8c922"/>
      <stop offset=".47" stop-color="#dfe639"/>
      <stop offset=".53" stop-color="#d6f142"/>
      <stop offset=".54" stop-color="#caf14c"/>
      <stop offset=".6" stop-color="#a6f46c"/>
      <stop offset=".65" stop-color="#90f67f"/>
      <stop offset=".68" stop-color="#89f787"/>
      <stop offset=".69" stop-color="#82f78c"/>
      <stop offset=".73" stop-color="#5ff8ac"/>
      <stop offset=".77" stop-color="#45fac2"/>
      <stop offset=".81" stop-color="#36fad0"/>
      <stop offset=".84" stop-color="#31fbd5"/>
      <stop offset=".84" stop-color="#2eefd6"/>
      <stop offset=".86" stop-color="#23bbe0"/>
      <stop offset=".88" stop-color="#1a8de8"/>
      <stop offset=".9" stop-color="#1265ef"/>
      <stop offset=".91" stop-color="#0b46f5"/>
      <stop offset=".93" stop-color="#062df9"/>
      <stop offset=".95" stop-color="#021bfc"/>
      <stop offset=".97" stop-color="#0011fe"/>
      <stop offset="1" stop-color="#000eff"/>
    </linearGradient>
    <linearGradient id="linear-gradient1" x1="844.74" y1="630.47" x2="920.73" y2="630.47" gradientTransform="translate(0 360)" gradientUnits="userSpaceOnUse">
      <stop offset="0" stop-color="#ef1f7e"/>
      <stop offset=".08" stop-color="#f1425f"/>
      <stop offset=".2" stop-color="#f57037"/>
      <stop offset=".22" stop-color="#f67f32"/>
      <stop offset=".32" stop-color="#f9b225"/>
      <stop offset=".37" stop-color="#fbc620"/>
      <stop offset=".38" stop-color="#f8c922"/>
      <stop offset=".47" stop-color="#dfe639"/>
      <stop offset=".53" stop-color="#d6f142"/>
      <stop offset=".54" stop-color="#caf14c"/>
      <stop offset=".6" stop-color="#a6f46c"/>
      <stop offset=".65" stop-color="#90f67f"/>
      <stop offset=".68" stop-color="#89f787"/>
      <stop offset=".69" stop-color="#82f78c"/>
      <stop offset=".73" stop-color="#5ff8ac"/>
      <stop offset=".77" stop-color="#45fac2"/>
      <stop offset=".81" stop-color="#36fad0"/>
      <stop offset=".84" stop-color="#31fbd5"/>
      <stop offset=".84" stop-color="#2eefd6"/>
      <stop offset=".86" stop-color="#23bbe0"/>
      <stop offset=".88" stop-color="#1a8de8"/>
      <stop offset=".9" stop-color="#1265ef"/>
      <stop offset=".91" stop-color="#0b46f5"/>
      <stop offset=".93" stop-color="#062df9"/>
      <stop offset=".95" stop-color="#021bfc"/>
      <stop offset=".97" stop-color="#0011fe"/>
      <stop offset="1" stop-color="#000eff"/>
    </linearGradient>
    <linearGradient id="linear-gradient2" x1="517.13" y1="630.38" x2="593.15" y2="630.38" gradientTransform="translate(0 360)" gradientUnits="userSpaceOnUse">
      <stop offset="0" stop-color="#ef1f7e"/>
      <stop offset=".08" stop-color="#f1425f"/>
      <stop offset=".2" stop-color="#f57037"/>
      <stop offset=".22" stop-color="#f67f32"/>
      <stop offset=".32" stop-color="#f9b225"/>
      <stop offset=".37" stop-color="#fbc620"/>
      <stop offset=".38" stop-color="#f8c922"/>
      <stop offset=".47" stop-color="#dfe639"/>
      <stop offset=".53" stop-color="#d6f142"/>
      <stop offset=".54" stop-color="#caf14c"/>
      <stop offset=".6" stop-color="#a6f46c"/>
      <stop offset=".65" stop-color="#90f67f"/>
      <stop offset=".68" stop-color="#89f787"/>
      <stop offset=".69" stop-color="#82f78c"/>
      <stop offset=".73" stop-color="#5ff8ac"/>
      <stop offset=".77" stop-color="#45fac2"/>
      <stop offset=".81" stop-color="#36fad0"/>
      <stop offset=".84" stop-color="#31fbd5"/>
      <stop offset=".84" stop-color="#2eefd6"/>
      <stop offset=".86" stop-color="#23bbe0"/>
      <stop offset=".88" stop-color="#1a8de8"/>
      <stop offset=".9" stop-color="#1265ef"/>
      <stop offset=".91" stop-color="#0b46f5"/>
      <stop offset=".93" stop-color="#062df9"/>
      <stop offset=".95" stop-color="#021bfc"/>
      <stop offset=".97" stop-color="#0011fe"/>
      <stop offset="1" stop-color="#000eff"/>
    </linearGradient>
    <linearGradient id="linear-gradient3" x1="751.5" y1="408.3" x2="864.83" y2="408.3" gradientTransform="translate(0 360)" gradientUnits="userSpaceOnUse">
      <stop offset="0" stop-color="#ef1f7e"/>
      <stop offset=".08" stop-color="#f1425f"/>
      <stop offset=".2" stop-color="#f57037"/>
      <stop offset=".22" stop-color="#f67f32"/>
      <stop offset=".32" stop-color="#f9b225"/>
      <stop offset=".37" stop-color="#fbc620"/>
      <stop offset=".38" stop-color="#f8c922"/>
      <stop offset=".47" stop-color="#dfe639"/>
      <stop offset=".53" stop-color="#d6f142"/>
      <stop offset=".54" stop-color="#caf14c"/>
      <stop offset=".6" stop-color="#a6f46c"/>
      <stop offset=".65" stop-color="#90f67f"/>
      <stop offset=".68" stop-color="#89f787"/>
      <stop offset=".69" stop-color="#82f78c"/>
      <stop offset=".73" stop-color="#5ff8ac"/>
      <stop offset=".77" stop-color="#45fac2"/>
      <stop offset=".81" stop-color="#36fad0"/>
      <stop offset=".84" stop-color="#31fbd5"/>
      <stop offset=".84" stop-color="#2eefd6"/>
      <stop offset=".86" stop-color="#23bbe0"/>
      <stop offset=".88" stop-color="#1a8de8"/>
      <stop offset=".9" stop-color="#1265ef"/>
      <stop offset=".91" stop-color="#0b46f5"/>
      <stop offset=".93" stop-color="#062df9"/>
      <stop offset=".95" stop-color="#021bfc"/>
      <stop offset=".97" stop-color="#0011fe"/>
      <stop offset="1" stop-color="#000eff"/>
    </linearGradient>
    <linearGradient id="linear-gradient4" x1="577.31" y1="461.63" x2="690.6" y2="461.63" gradientTransform="translate(0 360)" gradientUnits="userSpaceOnUse">
      <stop offset="0" stop-color="#ef1f7e"/>
      <stop offset=".08" stop-color="#f1425f"/>
      <stop offset=".2" stop-color="#f57037"/>
      <stop offset=".22" stop-color="#f67f32"/>
      <stop offset=".32" stop-color="#f9b225"/>
      <stop offset=".37" stop-color="#fbc620"/>
      <stop offset=".38" stop-color="#f8c922"/>
      <stop offset=".47" stop-color="#dfe639"/>
      <stop offset=".53" stop-color="#d6f142"/>
      <stop offset=".54" stop-color="#caf14c"/>
      <stop offset=".6" stop-color="#a6f46c"/>
      <stop offset=".65" stop-color="#90f67f"/>
      <stop offset=".68" stop-color="#89f787"/>
      <stop offset=".69" stop-color="#82f78c"/>
      <stop offset=".73" stop-color="#5ff8ac"/>
      <stop offset=".77" stop-color="#45fac2"/>
      <stop offset=".81" stop-color="#36fad0"/>
      <stop offset=".84" stop-color="#31fbd5"/>
      <stop offset=".84" stop-color="#2eefd6"/>
      <stop offset=".86" stop-color="#23bbe0"/>
      <stop offset=".88" stop-color="#1a8de8"/>
      <stop offset=".9" stop-color="#1265ef"/>
      <stop offset=".91" stop-color="#0b46f5"/>
      <stop offset=".93" stop-color="#062df9"/>
      <stop offset=".95" stop-color="#021bfc"/>
      <stop offset=".97" stop-color="#0011fe"/>
      <stop offset="1" stop-color="#000eff"/>
    </linearGradient>
    <linearGradient id="linear-gradient5" x1="614.66" y1="335.86" x2="690.61" y2="335.86" gradientTransform="translate(0 360)" gradientUnits="userSpaceOnUse">
      <stop offset="0" stop-color="#ef1f7e"/>
      <stop offset=".08" stop-color="#f1425f"/>
      <stop offset=".2" stop-color="#f57037"/>
      <stop offset=".22" stop-color="#f67f32"/>
      <stop offset=".32" stop-color="#f9b225"/>
      <stop offset=".37" stop-color="#fbc620"/>
      <stop offset=".38" stop-color="#f8c922"/>
      <stop offset=".47" stop-color="#dfe639"/>
      <stop offset=".53" stop-color="#d6f142"/>
      <stop offset=".54" stop-color="#caf14c"/>
      <stop offset=".6" stop-color="#a6f46c"/>
      <stop offset=".65" stop-color="#90f67f"/>
      <stop offset=".68" stop-color="#89f787"/>
      <stop offset=".69" stop-color="#82f78c"/>
      <stop offset=".73" stop-color="#5ff8ac"/>
      <stop offset=".77" stop-color="#45fac2"/>
      <stop offset=".81" stop-color="#36fad0"/>
      <stop offset=".84" stop-color="#31fbd5"/>
      <stop offset=".84" stop-color="#2eefd6"/>
      <stop offset=".86" stop-color="#23bbe0"/>
      <stop offset=".88" stop-color="#1a8de8"/>
      <stop offset=".9" stop-color="#1265ef"/>
      <stop offset=".91" stop-color="#0b46f5"/>
      <stop offset=".93" stop-color="#062df9"/>
      <stop offset=".95" stop-color="#021bfc"/>
      <stop offset=".97" stop-color="#0011fe"/>
      <stop offset="1" stop-color="#000eff"/>
    </linearGradient>
    <linearGradient id="linear-gradient6" x1="751.51" y1="461.78" x2="864.96" y2="461.78" gradientTransform="translate(0 360)" gradientUnits="userSpaceOnUse">
      <stop offset="0" stop-color="#ef1f7e"/>
      <stop offset=".08" stop-color="#f1425f"/>
      <stop offset=".2" stop-color="#f57037"/>
      <stop offset=".22" stop-color="#f67f32"/>
      <stop offset=".32" stop-color="#f9b225"/>
      <stop offset=".37" stop-color="#fbc620"/>
      <stop offset=".38" stop-color="#f8c922"/>
      <stop offset=".47" stop-color="#dfe639"/>
      <stop offset=".53" stop-color="#d6f142"/>
      <stop offset=".54" stop-color="#caf14c"/>
      <stop offset=".6" stop-color="#a6f46c"/>
      <stop offset=".65" stop-color="#90f67f"/>
      <stop offset=".68" stop-color="#89f787"/>
      <stop offset=".69" stop-color="#82f78c"/>
      <stop offset=".73" stop-color="#5ff8ac"/>
      <stop offset=".77" stop-color="#45fac2"/>
      <stop offset=".81" stop-color="#36fad0"/>
      <stop offset=".84" stop-color="#31fbd5"/>
      <stop offset=".84" stop-color="#2eefd6"/>
      <stop offset=".86" stop-color="#23bbe0"/>
      <stop offset=".88" stop-color="#1a8de8"/>
      <stop offset=".9" stop-color="#1265ef"/>
      <stop offset=".91" stop-color="#0b46f5"/>
      <stop offset=".93" stop-color="#062df9"/>
      <stop offset=".95" stop-color="#021bfc"/>
      <stop offset=".97" stop-color="#0011fe"/>
      <stop offset="1" stop-color="#000eff"/>
    </linearGradient>
    <linearGradient id="linear-gradient7" x1="751.51" y1="336.05" x2="827.77" y2="336.05" gradientTransform="translate(0 360)" gradientUnits="userSpaceOnUse">
      <stop offset="0" stop-color="#ef1f7e"/>
      <stop offset=".08" stop-color="#f1425f"/>
      <stop offset=".2" stop-color="#f57037"/>
      <stop offset=".22" stop-color="#f67f32"/>
      <stop offset=".32" stop-color="#f9b225"/>
      <stop offset=".37" stop-color="#fbc620"/>
      <stop offset=".38" stop-color="#f8c922"/>
      <stop offset=".47" stop-color="#dfe639"/>
      <stop offset=".53" stop-color="#d6f142"/>
      <stop offset=".54" stop-color="#caf14c"/>
      <stop offset=".6" stop-color="#a6f46c"/>
      <stop offset=".65" stop-color="#90f67f"/>
      <stop offset=".68" stop-color="#89f787"/>
      <stop offset=".69" stop-color="#82f78c"/>
      <stop offset=".73" stop-color="#5ff8ac"/>
      <stop offset=".77" stop-color="#45fac2"/>
      <stop offset=".81" stop-color="#36fad0"/>
      <stop offset=".84" stop-color="#31fbd5"/>
      <stop offset=".84" stop-color="#2eefd6"/>
      <stop offset=".86" stop-color="#23bbe0"/>
      <stop offset=".88" stop-color="#1a8de8"/>
      <stop offset=".9" stop-color="#1265ef"/>
      <stop offset=".91" stop-color="#0b46f5"/>
      <stop offset=".93" stop-color="#062df9"/>
      <stop offset=".95" stop-color="#021bfc"/>
      <stop offset=".97" stop-color="#0011fe"/>
      <stop offset="1" stop-color="#000eff"/>
    </linearGradient>
  </defs>
  <path class="st0" d="M1392.13,824.7c-13.89-106.33-175.03-109.59-163.03-.28,1.01,11.13,26.72,48.85,38.33,34.86,6.46-8.43-4.85-14.54-9.95-19.9-14.72-15.07-16.84-33.7-6.01-51.8,53.24-74.26,154.72,15.65,117.08,83.76-9.23,18.43-23.38,32.28-40.31,43.37-112.85,73.33-277.84,68.98-375.82-27.83,474.11-315.58,110.73-797.51-228.04-553.27v-96.51h25.28c-6.48,6.22-11.96,11.06-18.35,17.02-4.1,3.8-4.64,9.24-1.3,12.89,3.43,3.75,8.61,3.73,12.93-.18,6.85-6.13,12.91-12.16,19.96-18.19.53,9.18.09,17.65.25,26.76.03,6.08,3.47,9.96,8.7,9.89,14.27-.44,6.46-25.81,8.91-35.55,6.49,6.5,12.42,12.54,18.46,18.47,3.95,3.87,9.15,4,12.64.49,9.73-9.77-13.01-23.09-18.72-30.7.14-.3.28-.6.43-.9,7.86-.11,17.49.23,25.26-.09,11.08-.13,10.97-17.21-.23-17.16-3.48-.12-19.68.04-23.45-.02-.3-.46-.6-.92-.91-1.38,6.89-3.89,11.98-10.5,18.04-15.58,9.48-8.41-2.82-21.36-11.84-12.46-6.91,6.38-12.73,11.73-20.02,18.35-.03-9.21.1-18.54-.04-27.74-.08-5.42-3.86-9.3-8.71-9.28-14.07.23-6.6,25.91-8.8,35.59-6.73-6.21-12.48-12.47-19.02-18.76-3.55-3.47-8.72-3.5-12.07-.22-3.42,3.35-3.65,8.42-.27,12.07,6,6.39,12.37,12.48,18.84,18.39-.21.34-.42.68-.63,1.01-7.46,0-14.93-.12-22.4.06-2.92.07-3.68-.93-3.68-3.74.69-16.82.43-54.16,2.71-57.57,14.78-22.04,34.76-37.5,59.51-46.88,23.05-8.73,46.11-9.06,68.99.55,23.26,8.79,10.91,19.84-4.31,28.45-3.89,2.35-5.36,6.6-3.54,10.65,7.62,14.23,31.71-9.02,35.11-18.43,7.5-14.22-3.48-27.81-16.28-33.69-49.09-24.62-107.75-2.96-142.61,36.12v-50.64c8.22,5.47,20.91,28.27,31.09,18.83,3.82-3.73,3.19-9.1-1.65-13.94-5.75-5.65-11.13-11.68-17.51-16.64.27-.36.54-.71.81-1.07,9.28-1.97,33.97,5.29,33.75-8.74-.53-14.25-23.39-6.33-32.85-8.89,6.29-7.8,28.18-19.02,19.08-29.34-9.19-10.59-24.14,12.87-32.39,17.95-1.64-9.51.37-19.72-1-29.41-1.41-8.94-14.95-8.97-16.6-.19-.97,9.58-.16,18.64-.41,28.92-6.75-6.13-12.33-12.28-18.83-18.53-3.94-3.86-9.07-3.97-12.61-.4-3.54,3.58-3.37,8.65.53,12.62,6.34,6.49,12.25,12.1,18.6,18.75-9.88,0-18.82-.04-27.75,0-5.4.04-9.28,3.75-9.22,8.65.07,4.91,3.66,8.33,9.05,8.39,9.19.21,17.58-.27,26.87.27-6.67,6.15-12.74,11.67-18.72,17.28-3.81,3.57-4.21,8.8-1.09,12.36,3.3,3.75,8.57,3.96,12.62.37,7.22-6.51,13.1-12.1,20.64-18.84v52c-28.93-31.25-70.61-52.09-113.99-44.82-23.38,2.34-61.65,20.61-41.37,48.47,5.09,7.03,11.87,12.03,19.59,15.83,11.07,6,18.62-9.19,7.29-14.74-46.67-24.72,23.16-38.76,44.38-33.74,33.91,5.85,60.63,23.2,80.4,51.33,1.87,2.67,4.15,11.9,4.18,13.61.2,13.33.23,26.65.29,39.98.03,5.87-2.87,8.8-8.68,8.8h-16.44c6.66-8.07,28.61-19.42,19.59-29.65-9.92-10.66-24.07,13.28-32.9,18.06-.37-9.21.1-18.2-.21-27.4-.12-5.33-3.81-9.03-8.51-9.11-9.43-.23-9.25,11.22-8.83,18.28v17.38c-6.83-6.23-12.37-12.35-18.95-18.65-3.68-3.6-9.04-3.69-12.41-.4-10.03,10.31,13.5,22.93,18.78,31.48-9.44,0-18.13-.03-26.82,0-6.03.02-9.63,3.18-9.69,8.4-.4,11.06,13.63,8.7,21.33,8.86h13.22c.24.44.49.87.73,1.31-6.66,4.33-11.95,10.54-17.94,15.76-9.54,8.32,2.62,21.63,11.67,12.62,6.92-6.19,12.86-12.18,20.08-18.23.02,8.97-.06,18.06.02,27.02.06,5.54,3.15,9.24,7.86,9.67,15.76.6,7.25-25.55,9.91-35.49,6.45,6.47,12.4,12.5,18.43,18.44,3.94,3.89,9.05,4.02,12.61.46,6.41-6.08-.72-13.58-5.88-18.03-4.25-4.23-8.52-8.46-13.3-13.19h26.68v93.85C361.23,91.94,9.65,578.37,485.1,889.57c-85.15,81.81-218.29,94.68-324.75,50.52-46.4-18.74-103.07-53.51-95.26-111.35,2.73-56.2,85.5-96.74,121.97-43.68,11.52,16.7,12.75,37.05-3.69,53.62-5.2,5.52-17.12,12.5-10.4,20.75,3.12,3.78,8.51,4.26,12.63.8,85.95-74.45-48.84-169-116.67-83.01-89.01,129.8,109.35,207.12,212.79,205.06,88.93,2.26,154.41-29.65,220.65-81.43,66.14,46.3,144.99,76.96,209.78,122.48-.88,21.75,2.24,44.1-.82,65.54-18.41,41.85-58.52,69.11-91.74,98.54-8.48-11.35-16.87-22.57-25.22-33.72,5.64-5.98,5.53-10.07-.17-15.78-5.84-6.1-11.81-11.21-17.27-17.76,8.57-.02,17.24.09,25.8-.04,5.13-.08,8.56-3.53,8.62-8.35.05-4.99-3.48-8.61-8.72-8.67-7.82-.08-15.65-.02-24.16-.02,5.57-8.35,28.34-18.65,19.13-29.77-6.73-7.39-14.68,1.69-19.86,6.64-4.14,3.79-8.29,7.59-12.94,11.83-.44-8.99-.08-17.18-.2-26.08-.03-6.72-3.29-10.63-8.78-10.61-14.28.25-6.57,25.64-8.96,35.32-6.47-6.12-12.13-12.15-18.46-18.28-3.97-3.87-9.09-4.01-12.64-.48-9.81,10.32,13.61,22.88,18.85,31.41-9.38.03-18.86-.09-28.23.04-5,.08-8.33,3.72-8.29,8.67.4,11.87,15.2,7.68,23.13,8.37h11.83c.17.33.34.65.51.98-6.67,5.17-12.61,11.23-18.82,16.94-8.3,7.84,3.32,20.2,11.75,12.48,7.25-6.56,13.03-12.01,20.7-18.92v26.75c-.72,6.6,6.13,12.6,12.41,9.29,8.34-4.56,3.97-15.96,4.99-23.69.25-.08.5-.15.75-.22,13.74,18.33,27.49,36.67,41.28,55.06-79.92,68.97-208.36,115.16-302.02,46.55-60.28-40.03-67.11-147.73,6.94-175.82,50.5-22.34,99.18,45.8,42.37,67.87-6.64,1.69-9.4,7.68-6.14,13.03,2.27,3.73,6.11,4.7,11.94,3.25,69.65-22.96,29.9-118.61-39.72-104.17-77.87,13.5-100.74,113.53-59.72,173.35,84.41,120.84,261.95,73.6,356.98-9.79,30.71,40.69,64.62,86.55,95.58,127.05l.49,15.83c-6.64-6.65-12.67-12.75-18.75-18.8-3.99-3.97-9.39-4.2-12.88-.63-9.65,10.49,13.47,22.6,18.69,31.18-9.39,0-18.09-.06-26.78.03-5.81.05-9.58,3.57-9.58,8.68-.23,9.95,12.11,8.9,19.39,8.71h16.09c-5.56,8.21-28.55,19.15-19.43,29.75,3.36,3.78,8.53,3.97,12.61.31,6.83-6.13,13.35-12.47,20.29-18.51,1.17,8.89.08,18.44.5,27.57.03,5.4,3.32,8.93,8.31,9.01,14.34.27,6.72-25.55,8.9-35,.33-.2.67-.4,1-.6,5.21,7.12,12.15,12.86,18.34,19.14,7.98,7.76,19.96-4.41,11.91-12.26-6.48-6.61-12.29-12.25-19.16-19.15,9.69-2.1,34.53,5.28,34.7-8.97-.54-13.82-23.22-7.26-33.2-8.69,6.48-7.92,29.05-19.9,19.18-29.83-10.48-9.44-32.05,16.6-32.47,16.4,0,0-.09-11.5-.09-11.08,0,0,60.15-90.17,86.01-135.58,86.36,76.07,225.08,126.35,327.63,52.72,72.57-46.99,78.16-174.27-9.57-206.84-71.32-30.85-134.83,70.31-53,100.56,6.05,1.29,10.61-1.27,11.75-6.6.99-4.58-2.11-8.72-7.63-10.15-21.01-5.43-31.03-28.46-20.66-47.51,25.67-45.26,93.26-20,108.39,22.37,39.64,87.4-52.7,169.61-138,166.65-77.54,2.77-150.07-35.47-207.83-84.48-2.12-1.79-1.44-3.06-.35-4.86,11.87-18.93,22.52-38.45,34.95-57.01,0,9.4-.03,17.99,0,26.59.03,5.53,3.46,9.39,8.39,9.52,14.34.11,6.66-26.21,9.01-35.92,6.58,6.63,12.51,12.67,18.53,18.61,4.04,4.01,9.36,4.12,12.88.44,9.61-10.45-14.18-22.87-19.21-31.58,8.87,0,17.08.04,25.31-.02,5.57-.04,9.21-3.52,9.17-8.58-.92-14.27-23.3-6.24-32.88-8.88,6.26-7.72,28.29-19.32,19.08-29.34-5.78-6.7-13.6.1-18.26,5.12-4.76,4.36-9.52,8.72-14.95,13.69,0-8.98.01-18.05,0-27.03-.02-6.27-3.19-10-8.45-10.01-14.45-.03-6.42,25.99-9,35.62-6.45-6.45-12.41-12.46-18.43-18.43-4-3.96-8.98-4.21-12.6-.74-10.54,10.33,13.56,22.89,18.61,31.53-9.54,0-18.51-.04-27.46,0-5.25.04-9.04,3.56-9.16,8.35-.13,4.95,3.65,8.64,9.12,8.7,9.09.24,17.56-.37,26.73.32-6.17,5.7-11.76,10.86-17.34,16.03-5.71,5.29-6.01,8.81-1.23,15.16-5.84,9.63-11.7,19.31-17.63,29.09-26.51-25.33-79.89-60.94-83.19-99.1.55-20.55-.51-41.19-.37-61.76,0-1.42,141.75-79.43,208.5-122.93,93.49,94.44,245.86,108.05,363.24,52.79,49.62-21.69,101.44-64.96,91.13-125.01h.01ZM708.59,520.66l-.35,29.27s-29.45,20.37-41.88,29.27c-5.03-5.46-9.75-10.62-14.75-16.04,18.87-14.07,37.54-27.99,56.97-42.5h0ZM708.99,570.38v63.8c-10.31-13.94-20.52-27.75-31.08-42.02,10.16-7.12,20.31-14.22,31.08-21.78h0ZM706.79,499.73s-44.71,34.42-67.57,50.84c-6.98-6.56-14-13.16-21.33-20.03,29.98-24.82,59.75-49.49,90.48-74.93.22-1.79-1.58,44.13-1.58,44.13h0ZM707.7,377.24c-.04,18.05.2,34.54.07,52.35-29.47,32.66-69.39,59.18-102.86,88.98-4.76-4.03-9.45-8.02-14.54-12.34,38.9-42.76,77.7-85.41,117.33-128.99h0ZM706.14,353.37c-43.25,47.53-86.39,94.95-129.67,142.52-5.16-3.14-9.99-6.08-15.11-9.2,32.69-55.5,65.26-110.8,97.94-166.28,17.01,9.11,31.61,21.05,46.84,32.95h0ZM613.29,299.15c10.3,4.25,20.47,8.45,31.01,12.79-33.26,56.47-66.1,112.22-98.89,167.88-3.74-.33-2.49-2.39-1.8-4.13,23.31-58.86,46.11-117.78,69.68-176.54h0ZM550.15,288.87c-2.4-7.75,41.16,4.39,46.37,5.52-22.39,56.86-44.66,113.41-66.93,169.96-.25-.04-.5-.08-.75-.12,6.75-58.49,14.29-116.9,21.3-175.36h.01ZM474.49,289.45c19.36-3.61,39.24-6.25,58.86-4.39-7.57,61.86-15.14,123.74-22.75,185.92-8.59,0-16.81.08-25.03-.12-.78-.02-2.11-1.79-2.19-2.82-3.3-50.11-10.62-167.01-11.17-175.34-.12-1.79.12-2.82,2.27-3.25h.01ZM419.09,307.29c12.15-4.05,23.57-9.51,35.96-12.81,3.81,59.64,7.6,118.97,11.42,178.58-2.75.66-4.98,1.18-7.76,1.85-14.31-54.05-27.87-108.28-42-162.38-.71-2.75-.39-4.23,2.38-5.24ZM364.61,340.16c11.47-7.83,22.89-15.73,35.24-24.22,14.37,55.7,28.36,109.99,42.41,164.53-2.66,1.31-5.22,2.59-8.05,3.99-23.73-46.42-46.45-93.36-69.84-139.97-.74-1.49-1.89-2.88.23-4.33h0ZM349.16,352.46c22.82,46.3,45.54,91.77,68.53,137.87,3.54,5.93-5.38,8.05-8.6,12.38-29.1-40.13-58.12-80.15-87.56-120.75,9.05-9.66,18.03-19.24,27.63-29.5ZM310.68,396.35c21.75,29.99,42.76,58.97,63.77,87.95-.17.2-.34.4-.5.6-27.78-16.76-55.56-33.52-84.12-50.76,6.9-12.51,13.69-24.82,20.84-37.8h.01ZM283.76,450.6c37.75,22.77,74.73,45.09,111.7,67.4-.03.36-.05.74-.07,1.1-40.48-9.25-80.32-23.59-120.45-35.11,2.9-10.98,5.8-21.95,8.82-33.39h0ZM272.12,501.31c38.18,11.41,75.53,22.56,112.91,33.72-.29,3.53-1.83,4.6-5.2,4.57-36.55-.52-72.92-.29-109.5-1,.6-12.46,1.17-24.5,1.79-37.29h0ZM278.61,604.52c-2.61-16.21-5.17-32.11-7.74-48.06h106.23c.22.4.45.79.68,1.19-1,1.23-1.73,3.04-3.03,3.62-32.1,14.39-63.81,29.37-96.14,43.25ZM283.36,621.58c30.14-13.63,59.73-27.01,89.93-40.66-.58,4.64-1.09,8.72-1.61,12.79l1.23.93c24.61-36.28,60.79-53.3,104.37-41.28-59.73,36.65-118.68,72.82-178.44,109.48-5.19-13.83-10.26-27.35-15.48-41.27h0ZM306.66,678.51c62.39-39,125.4-76.94,187.98-115.65,7.39-4.86,26.21,14.96,32.21,20.58-68.97,39.63-137.57,79.06-206.76,118.82-4.5-7.97-8.87-15.69-13.42-23.75h-.01ZM329.07,716.96c69.93-40.18,139.16-79.98,208.76-119.97,7.14,9.63,12.54,20.04,17.13,31.27-65.42,42.41-130.71,84.75-196.72,127.54-9.75-12.98-19.32-25.73-29.17-38.84h0ZM389.58,789.59c-6.29-6.87-12.84-13.5-19.78-20.75,63.95-41.46,127.3-82.53,191.43-124.11,1.87,9.4,3.73,18.13,5.22,26.92.18,1.09-1.37,2.91-2.57,3.74-55.92,38.37-112.08,76.4-168,114.76-2.59,1.78-4.11,1.84-6.3-.55h0ZM405.08,804.63c54.57-37.22,108.79-74.22,163.49-111.53-.78,6.44,2.26,23.51-2.58,25.93-45.88,35.62-91.33,70.82-137.35,106.43-7.88-6.97-15.49-13.71-23.55-20.83h-.01ZM459.35,849.9c-5.45-4.42-11.07-8.63-17.03-13.23,40.96-31.72,81.65-63.24,122.34-94.75.33.19.65.36.98.55-5.51,21.54-4.39,38.59-25.17,50.72-25.19,18.9-50.4,37.78-75.52,56.78-2.19,1.65-3.55,1.59-5.6-.07h0ZM497.47,877.08c-6.87-4.76-13.58-9.43-20.81-14.43,21.29-15.99,42.22-31.73,63.16-47.46.23.25.45.5.68.75-11.42,22.27-25.78,42.48-43.04,61.14h.01ZM712,1000.82c-67.01-37.17-135.14-72.53-199.65-113.99,83.8-88.09,112.76-260.44.27-337.19-33.15-20.27-76.81-23.01-111.69-5.37,13.56-30.09,38.97-49.49,71.54-54.52,99.64-16.92,237.41,178.92,237.34,185.96,0,107.04,1.25,218.08,2.2,325.12h-.01ZM713.46,1312.71c-27.66-36.91-55.3-73.83-83.2-111.06,28.49-25.42,58.85-48.7,82.5-80.26.48,64.38.95,127.67,1.42,190.95-.24.12-.48.25-.72.37h0ZM803.62,1195.97c-23.89,39.53-47.72,78.95-71.54,118.38-.26-.07-.52-.14-.76-.2-.43-62.78-.84-125.55-1.27-189.31,21.62,27.42,47.84,48.73,73.58,71.13h-.01ZM988.06,838.83c-1.07.76-3.43.45-4.89-.13-24.72-10.07-49.41-20.26-74.09-30.42-14.36-5.53-17.68-5.29-21.94-21.32,38.75,13.27,77.04,26.39,116.11,39.77-5.52,4.47-10.2,8.49-15.18,12.1h0ZM1026.48,806.39c-5.43,6.51-10.8,6.74-18.68,3.94-41.33-14.69-82.93-28.67-124.45-42.81-2.32-.79-3.55-1.92-4.06-4.41-1.62-7.89-3.49-15.73-5.49-24.54,57.8,16.52,114.46,32.72,170.43,48.72-5.96,6.35-12.2,12.43-17.74,19.09h-.01ZM1062.89,769.58c-2.65,3.26-5.02,3.89-9.13,2.7-59.46-17.17-118.98-34.13-178.49-51.08-2.35-.67-3.44-1.66-3.4-4.18.11-6.63.04-13.26.04-20.47,70.4,16.31,140.52,32.56,211.45,49-7.17,8.37-13.99,16.05-20.45,24.03h-.02ZM1123.02,685.18c-8.83,14.16-17.72,28.29-26.51,42.48-1.37,2.2-2.86,2.68-5.39,2.1-71.7-16.68-143.42-33.31-215.15-49.86-2.57-.59-3.42-1.62-2.93-4.18.82-4.25,1.42-8.54,2.17-13.15,83.25,6.38,166.18,12.74,249.54,19.14-.68,1.38-1.1,2.49-1.72,3.48h-.01ZM1144.48,637.16c-2.54,6.53-5.01,13.1-7.72,19.56-3.57,8.56-3.65,8.46-12.97,7.74-81.58-6.36-163.14-12.43-244.7-19.07,2.42-4.45,5.2-20.74,10.22-19.77,14.15.32,185.02,5.01,256.36,7.52-.52,1.76-.76,2.93-1.18,4.02h0ZM1154.1,604.99c-2.51,11.06-2.51,11.17-13.71,10.85-81.89-2.84-163.82-4.37-245.68-7.52,3.55-3.87,9.04-16.58,13.55-15.98,28.09.12,193.35.7,248.48.69-1,4.57-1.79,8.27-2.63,11.97h-.01ZM922.59,575.3c3.64-5.77,9.08-5.02,13.83-5.61,29.78-3.7,59.57-7.28,89.37-10.78,1.79-.21,4.04.06,5.46,1.02,6.66,5.01,13.9,8.96,19.4,15.37h-128.06ZM1160.07,575.86h-93.79c-1.29-7.14-2.54-14.12-3.85-21.39,33.31-4.02,66.52-8.03,100.56-12.14-.99,11.38-1.94,22.27-2.92,33.54h0ZM1163.24,524.87c-35.35,4.46-70,8.84-105.33,12.71-4.09-.24-9.84-15.56-12.99-19.63,37.35-11.66,74.81-23.36,113.51-35.43,1.63,14.41,3.19,28.15,4.81,42.35h0ZM1153.91,465.84c-39.53,12.55-78.93,24.65-118.45,37.09-5.55,2.01-7.97-4.69-12.43-7.39,37.72-25.31,75.18-50.44,112.94-75.77,7.76,14.75,13.57,29.9,17.95,46.07h-.01ZM1091.94,361.52c5.86,2.64,31,33.96,35.2,43.43-37.48,25.14-75,50.3-112.52,75.47-.19-.19-.37-.37-.55-.56,25.96-39.45,51.93-78.92,77.87-118.34ZM1079.73,348.74c-28.01,42.53-55.51,84.19-83.29,126.69-1.79,2.76-3.27,3.22-6.38,2.24-7.31-2.36-14.65-3.62-22.08-5.78,28.57-47.61,56.98-94.97,85.8-142.99,8.79,6.73,17.27,13.21,25.95,19.85h0ZM1038.83,319.97c-29.08,49.46-59.03,98.4-88.32,147.75-3.63,6.13-12.38,2.19-18.82,3.29,19.09-58.18,37.99-115.77,56.97-173.61,17.68,5.78,34.12,13.24,50.17,22.57h0ZM927.6,285.23c13.85.54,27.09,4.18,40.73,6.25,3.44.57,3.58,2,2.61,4.93-19.31,58.14-38.04,116.48-57.46,174.58-.28,0-.56-.02-.84-.03,4.97-61.72,9.94-123.45,14.96-185.74h0ZM910.37,284.87c-5.08,63.12-10.16,126.27-15.25,189.41-.21.06-.43.12-.64.19-18.06-60.16-36.12-120.32-54.27-180.73,13.85-5.21,56.78-10.64,70.16-8.87ZM823.45,297.72c19.07,63.54,37.8,125.92,56.58,188.49-3.78,2.18-7.43,4.28-11.6,6.69-28.4-59.11-56.76-118.11-85.56-178.04,13.57-5.73,26.83-11.34,40.58-17.14h0ZM725.46,355.86c13.43-9.59,28.78-22.98,42.63-31.99,28.7,59.71,57.3,119.25,85.92,178.8-.34.21-.67.43-1,.65-42.15-45.06-127.54-147.46-127.54-147.46h-.01ZM725.08,391.14c38.58,41.47,76.63,82.37,114.84,123.46-5.86,5.3-11.42,10.31-17.15,15.49l-97.38-84.78-.31-54.17ZM725.53,470.23c28.34,24.04,56.32,47.76,83.92,71.17-7.35,7.64-14.38,14.95-21.63,22.49-19.88-16.85-62.35-58.34-62.35-58.34l.06-35.31h0ZM726,534.59c0-.27,33.52,27.67,50.11,42.13-5.35,6.27-10.57,12.39-16.06,18.83-10.81-10.21-32.03-30.52-32.03-30.52l-2.02-30.45h0ZM726.65,640.53v-52.87c7.7,7.31,15.06,14.29,22.58,21.43-7.34,10.58-14.6,21.06-21.86,31.53-.24-.03-.48-.05-.72-.09h0ZM828.51,941.77c-32.98,18.11-66.09,35.99-99.3,54.06-.13-106.71-3.06-213.52-.9-320.22,30.37-62.38,81.87-112.73,134.34-157.28,51.33-43.93,143.05-43.36,175.49,22.66-82.59-29.56-158.65,22.82-176.99,105.29-21.84,84.15,7.7,173.74,64.34,237.67-31.58,20.8-64.04,39.73-96.98,57.82h0ZM940.3,874.29c-13.58-14.92-25.2-30.92-35.6-49.21,22.49,9.26,43.95,18.1,66.26,27.28-10.55,7.55-20.44,14.61-30.66,21.93h0Z"/>
  <path class="st7" d="M914.83,998.17c-7.79.95-15.39.14-23.63.39-2.19,9.24,5.09,28.99-8.81,29.94-13.44-.19-7.54-21-8.75-29.94-8.51-1.22-25.37,4-28.54-5.81-3.43-16.05,18.7-10.13,28.55-11.18,1.27-9.01-4.32-26.17,6.82-29.02,15.61-1.88,9.19,19.63,10.44,29.02,7.38,0,14.37-.04,21.35.02,9.76-.35,11.71,13.95,2.58,16.58h-.01Z"/>
  <path class="st6" d="M593.15,989.92c-.7,13.74-20.38,7.21-29.93,8.64-1.41,9.13,5.01,29.28-8.35,29.82-13.72-.1-7.24-20.44-8.64-29.82-8.95-1.28-26.67,4.42-29.04-6.88-1.35-15.56,19.39-8.91,29.04-10.27,1.38-9.26-4.89-28.33,8.32-29.04,13.53.61,7.34,19.4,8.66,28.77,9.25,2.18,28.92-5.13,29.93,8.8v-.02h.01Z"/>
  <path class="st1" d="M760.99,687.11c6.28-.03,12.57,0,19.58,0,1.24-8.79-4.68-28.85,8.67-29.09,13.43.83,7.28,19.54,8.6,29.08h6.98c7.95.48,22.65-3.11,22.94,8.72-.97,13.29-20.49,6.87-29.92,8.28v16.59c.79,6.22-1.5,13.75-8.82,13.37-13.8-1-6.65-20.69-8.66-29.96-6.67,0-13.06.02-19.45,0-12.39.49-12.38-17.51.08-16.98h0ZM855.81,812.98c11.87-.13,12.12,17.35.18,17.32-8.46.25-17.1.03-25.59.08,6.34,6.78,12.29,12.34,18.66,18.88,3.89,3.95,4.05,9.03.52,12.6-3.55,3.59-8.62,3.5-12.6-.41-6.03-5.92-11.96-11.95-18.5-18.51-1.89,8.91,3.75,31.55-5.46,34.79-6.19,3.06-12.89-2.65-12.25-9.16.04-8.71.02-17.41.02-26.97-7.35,6.62-13.39,12.29-20.43,18.73-8.59,8.39-20.51-4.46-11.78-12.49,6.18-5.31,11.49-11.99,18.57-16.06-.31-.47-.63-.93-.95-1.39-9.28-1.4-34.09,4.94-34.67-8.26-.47-5.87,5.16-9.62,10.61-9.13,8.44-.06,16.89-.03,25.33-.03.23-.33.45-.66.68-1-6.51-5.87-12.92-11.91-18.91-18.31-7.77-8.11,4.5-19.79,12.33-11.87,6.67,6.4,12.33,12.6,19.22,18.95,0-9.54-.09-18.14.03-26.73.07-4.87,3.42-8.5,7.87-8.98,6.23-.76,10.09,5.66,9.49,11.42.05,8.28,0,16.67.02,24.96,7.32-5.27,13.01-11.8,19.81-17.63,9.39-9.37,21.66,4.32,11.62,12.72-5.68,5.22-11.34,10.47-17.85,16.48,5.45.03,18.78-.06,24.03.02v-.02h0Z"/>
  <path class="st5" d="M690.6,821.6c-.08,4.98-3.62,8.25-9.03,8.27-8.35.03-16.7,0-25.7,0,6.11,6.9,12.67,12.77,19.02,19.39,3.72,3.78,3.87,8.77.47,12.3-3.32,3.45-8.65,3.6-12.38.03-6.66-6.27-12.26-12.57-19.14-18.76-1.42,10.1,5.25,36.28-9.27,35.5-7.27-.35-8.55-7.93-8.14-13.82-.05-7.37-.02-14.74-.02-22.82-8.68,4.99-23.27,28.72-32.92,18.44-9.51-10.68,13.92-22.06,19.56-30.23-9.49,0-18.27.03-27.04,0-5.57-.03-9.07-3.84-8.67-9.29.33-4.58,3.8-7.65,8.9-7.68,8.95-.04,17.89,0,27.5,0-5.25-8.7-28.9-21.02-18.52-31.63,3.67-3.47,8.61-3.04,12.84,1.17,6.31,6.17,11.74,12.05,18.35,18.08v-21.37c-.8-6.51,1.36-14.83,9.12-14.24,4.65.17,8.15,3.74,8.24,8.88.18,9.19.02,18.5.05,27.69,7.15-5.84,13.11-11.97,19.95-18.05,9.26-9.32,21.31,4.31,11.67,12.64-5.77,5.34-11.53,10.68-17.79,16.47,9.51,2.5,32.65-5.48,32.92,9.05l.03-.02h0Z"/>
  <path class="st3" d="M690.61,695.41c-.47,13.57-20.48,7.22-29.97,8.61-1.26,8.57,4.16,27.04-6.16,29.63-16.09,2.35-9.56-19.77-10.83-29.63-9.61-.57-33.13,4.13-28.36-12.07,1.4-3.15,3.86-4.94,7.37-4.98,6.94-.06,14.05-.02,21-.03,1.29-8.78-4.3-26.21,6.42-28.91,15.95-2.03,9.2,18.99,10.56,28.91,9.34,1.41,29.6-4.97,29.96,8.47h0Z"/>
  <path class="st2" d="M864.96,821.38c.11,5.02-3.38,8.74-8.96,8.93-8.46.25-17.1.03-25.59.08,6.34,6.78,12.29,12.34,18.66,18.88,3.89,3.95,4.05,9.03.52,12.6-3.55,3.59-8.62,3.5-12.6-.41-6.03-5.92-11.96-11.95-18.5-18.51-1.89,8.91,3.75,31.55-5.46,34.79-6.19,3.06-12.89-2.65-12.25-9.16.04-8.71.02-17.41.02-26.97-7.35,6.62-13.39,12.29-20.43,18.73-8.59,8.39-20.51-4.46-11.78-12.49,6.18-5.31,11.49-11.99,18.57-16.06-.31-.47-.63-.93-.95-1.39-9.28-1.4-34.09,4.94-34.67-8.26-.47-5.87,5.16-9.62,10.61-9.13,8.44-.06,16.89-.03,25.33-.03.23-.33.45-.66.68-1-6.51-5.87-12.92-11.91-18.91-18.31-7.77-8.11,4.5-19.79,12.33-11.87,6.67,6.4,12.33,12.6,19.22,18.95,0-9.54-.09-18.14.03-26.73.07-4.87,3.42-8.5,7.87-8.98,6.23-.76,10.09,5.66,9.49,11.42.05,8.28,0,16.67.02,24.96,7.32-5.27,13.01-11.8,19.81-17.63,9.39-9.37,21.66,4.32,11.62,12.72-5.68,5.22-11.34,10.47-17.85,16.48h16.4c6.68-.5,16.78-.17,16.77,8.41v-.02h0Z"/>
  <path class="st4" d="M827.77,695.82c-.97,13.28-20.49,6.87-29.92,8.28v16.59c.79,6.22-1.5,13.75-8.82,13.37-13.8-1-6.65-20.69-8.66-29.96-9.18-1.35-27.78,4.82-28.86-8.34.76-13.54,19.43-7.3,29.07-8.65,1.24-8.79-4.68-28.85,8.67-29.09,13.43.83,7.28,19.54,8.6,29.08h6.98c7.96.49,22.65-3.11,22.94,8.72h0Z"/>
</svg>