<?xml version="1.0" encoding="UTF-8"?>
<svg id="Layer_1" xmlns="http://www.w3.org/2000/svg" version="1.1" viewBox="0 0 520.8 794.8">
  <!-- Generator: Adobe Illustrator 29.8.1, SVG Export Plug-In . SVG Version: 2.1.1 Build 2)  -->
  <defs>
    <style>
      .st0 {
        fill: lime;
        stroke: #000;
        stroke-miterlimit: 10;
        stroke-width: .5px;
      }
    </style>
  </defs>
  <path class="st0" d="M316.6,408.8l-94.9.2s-18.2-7.8-2.2-23.6l94.5.5s19.5,8.2,2.7,22.8Z"/>
  <path class="st0" d="M260.4.5L.3,397.4l260,396.9,260-396.9L260.4.5ZM19.7,397.4L260.4,28l240.7,369.4-240.7,369.4L19.7,397.4Z"/>
  <g>
    <path class="st0" d="M292.5,355.6s-18.9,2.6-20.5,26.2h-7.7c0,0,1.5-20.9-23.8-27.9l-118.2-113.9,274.8-.5.4,57.6-14.7-.5v-28.5c0,0-192.1-.6-192.1-.6l101.7,88.2h0Z"/>
    <path class="st0" d="M292.5,439.3s-18.9-2.6-20.5-26.2h-7.7c0,0,1.5,20.9-23.8,27.9l-118.2,113.9,274.8.5.4-57.6-14.7.5v28.5c0,0-192.1.6-192.1.6l101.7-88.2h0Z"/>
  </g>
  <g>
    <path class="st0" d="M151.3,379.5s3.2-21.4,23.2-22.9l65,.3s22.2,3.1,21.6,24.7h-22.2s0-2.1-2.6-2.2l-60.4-.4s-3.4.3-2.9,4.8v27.6c-.1,0,.1,3.5,4.5,3.5l58.4.5s2.3-.5,2.9-2.8l22.4.3s.1,19.2-20.9,24.7l-68.1-.2s-19.5-5.1-20.3-21.5l-.6-36.3h0Z"/>
    <path class="st0" d="M385.1,379.5s-3.2-21.4-23.2-22.9l-65,.3s-22.2,3.1-21.6,24.7h22.2s0-2.1,2.6-2.2l60.5-.4s3.5.3,2.9,4.8v27.6c.1,0-.1,3.5-4.5,3.5l-58.4.5s-2.3-.5-2.9-2.8l-22.4.3s-.1,19.2,21,24.7l68.1-.2s19.5-5.1,20.3-21.5l.6-36.3h0Z"/>
  </g>
  <path class="st0" d="M316.6,408.8l-94.9.2s-18.2-7.8-2.2-23.6l94.5.5s19.5,8.2,2.7,22.8Z"/>
</svg>