<?xml version="1.0" encoding="UTF-8"?>
<svg id="Layer_1" data-name="Layer 1" xmlns="http://www.w3.org/2000/svg" xmlns:xlink="http://www.w3.org/1999/xlink" viewBox="0 0 803.77 795.24">
  <defs>
    <style>
      .cls-1 {
        fill: none;
      }

      .cls-2 {
        font-family: BradleyHandITCTT-Bold, 'Bradley Hand';
        font-size: 48px;
        font-weight: 700;
      }

      .cls-2, .cls-3, .cls-4 {
        stroke: #000;
        stroke-miterlimit: 10;
      }

      .cls-2, .cls-4 {
        fill: #fff;
      }

      .cls-3 {
        fill: url(#New_Pattern_2);
        stroke-width: 1px;
      }

      .cls-4 {
        stroke-width: .52px;
      }
    </style>
    <pattern id="New_Pattern_2" data-name="New Pattern 2" x="0" y="0" width="195.05" height="221.44" patternTransform="translate(.5 794.74)" patternUnits="userSpaceOnUse" viewBox="0 0 195.05 221.44">
      <g>
        <rect class="cls-1" width="195.05" height="221.44"/>
        <text class="cls-2" transform="translate(29.44 208.65) rotate(-50.89)"><tspan x="0" y="0">Ziledigital</tspan></text>
      </g>
    </pattern>
  </defs>
  <rect class="cls-3" x=".5" y=".5" width="802.77" height="794.24"/>
  <path class="cls-4" d="M397.42.5L137.37,397.38l260.05,396.89,260.05-396.89L397.42.5ZM156.73,397.38L397.42,27.97l240.69,369.41-240.69,369.42-240.69-369.42h0Z"/>
  <g>
    <path class="cls-4" d="M429.51,355.54s-18.89,2.65-20.47,26.18l-7.74-.06s1.49-20.84-23.81-27.8l-118.15-113.95,274.79-.52.43,57.58-14.72-.5-.09-28.52-191.96-.59,101.71,88.17h.01Z"/>
    <path class="cls-4" d="M429.51,439.24s-18.89-2.65-20.47-26.18l-7.74.06s1.49,20.84-23.81,27.8l-118.15,113.95,274.79.52.43-57.58-14.72.5-.09,28.52-191.96.59,101.71-88.17h.01Z"/>
  </g>
  <g>
    <path class="cls-4" d="M288.3,379.5s3.19-21.43,23.19-22.89l65.04.31s22.19,3.12,21.65,24.67l-22.17-.04s.01-2.11-2.64-2.16l-60.45-.43s-3.45.32-2.87,4.78l-.12,27.56s.25,3.51,4.59,3.51l58.43.5s2.34-.52,2.93-2.81l22.44.26s.15,19.22-20.95,24.74l-68.12-.22s-19.54-5.07-20.31-21.5l-.64-36.29h0Z"/>
    <path class="cls-4" d="M522.12,379.5s-3.19-21.43-23.19-22.89l-65.04.31s-22.19,3.12-21.65,24.67l22.17-.04s-.01-2.11,2.64-2.16l60.45-.43s3.45.32,2.87,4.78l.12,27.56s-.25,3.51-4.59,3.51l-58.43.5s-2.34-.52-2.93-2.81l-22.44.26s-.15,19.22,20.95,24.74l68.12-.22s19.54-5.07,20.31-21.5l.64-36.29h0Z"/>
  </g>
  <path class="cls-4" d="M453.58,408.79l-94.92.25s-18.23-7.83-2.24-23.59l94.49.53s19.48,8.23,2.67,22.81Z"/>
</svg>